<svg xmlns="http://www.w3.org/2000/svg" viewBox="0 0 240 240">
    <!-- White Background -->
    <path fill="#FFFFFF" d="M0,0h240v240h-240z"/>

    <!-- Black Dots (Simplified 5x5 grid for iconic look) -->
    <!-- Row 1 -->
    <path fill="#000000" d="M30,30m-10,0a10,10 0 1,1 20,0a10,10 0 1,1 -20,0" />
    <path fill="#000000" d="M75,30m-10,0a10,10 0 1,1 20,0a10,10 0 1,1 -20,0" />
    <path fill="#000000" d="M120,30m-10,0a10,10 0 1,1 20,0a10,10 0 1,1 -20,0" />
    <path fill="#000000" d="M165,30m-10,0a10,10 0 1,1 20,0a10,10 0 1,1 -20,0" />
    <path fill="#000000" d="M210,30m-10,0a10,10 0 1,1 20,0a10,10 0 1,1 -20,0" />

    <!-- Row 2 -->
    <path fill="#000000" d="M30,75m-10,0a10,10 0 1,1 20,0a10,10 0 1,1 -20,0" />
    <path fill="#000000" d="M75,75m-10,0a10,10 0 1,1 20,0a10,10 0 1,1 -20,0" />
    <path fill="#000000" d="M120,75m-10,0a10,10 0 1,1 20,0a10,10 0 1,1 -20,0" />
    <path fill="#000000" d="M165,75m-10,0a10,10 0 1,1 20,0a10,10 0 1,1 -20,0" />
    <path fill="#000000" d="M210,75m-10,0a10,10 0 1,1 20,0a10,10 0 1,1 -20,0" />
    
    <!-- Row 3 -->
    <path fill="#000000" d="M30,120m-10,0a10,10 0 1,1 20,0a10,10 0 1,1 -20,0" />
    <path fill="#000000" d="M75,120m-10,0a10,10 0 1,1 20,0a10,10 0 1,1 -20,0" />
    <path fill="#000000" d="M120,120m-10,0a10,10 0 1,1 20,0a10,10 0 1,1 -20,0" />
    <path fill="#000000" d="M165,120m-10,0a10,10 0 1,1 20,0a10,10 0 1,1 -20,0" />
    <path fill="#000000" d="M210,120m-10,0a10,10 0 1,1 20,0a10,10 0 1,1 -20,0" />

    <!-- Row 4 -->
    <path fill="#000000" d="M30,165m-10,0a10,10 0 1,1 20,0a10,10 0 1,1 -20,0" />
    <path fill="#000000" d="M75,165m-10,0a10,10 0 1,1 20,0a10,10 0 1,1 -20,0" />
    <path fill="#000000" d="M120,165m-10,0a10,10 0 1,1 20,0a10,10 0 1,1 -20,0" />
    <path fill="#000000" d="M165,165m-10,0a10,10 0 1,1 20,0a10,10 0 1,1 -20,0" />
    <path fill="#000000" d="M210,165m-10,0a10,10 0 1,1 20,0a10,10 0 1,1 -20,0" />

    <!-- Row 5 -->
    <path fill="#000000" d="M30,210m-10,0a10,10 0 1,1 20,0a10,10 0 1,1 -20,0" />
    <path fill="#000000" d="M75,210m-10,0a10,10 0 1,1 20,0a10,10 0 1,1 -20,0" />
    <path fill="#000000" d="M120,210m-10,0a10,10 0 1,1 20,0a10,10 0 1,1 -20,0" />
    <path fill="#000000" d="M165,210m-10,0a10,10 0 1,1 20,0a10,10 0 1,1 -20,0" />
    <path fill="#000000" d="M210,210m-10,0a10,10 0 1,1 20,0a10,10 0 1,1 -20,0" />
</svg>
